<svg xmlns="http://www.w3.org/2000/svg" width="101" height="19" fill="none"><g fill="#111" clip-path="url(#a)"><path d="M1.26 17.35A6.86 6.86 0 0 1 0 13.05V6.65c-.1-1.54.3-3.08 1.19-4.38.86-1 2.2-1.46 4.18-1.46 1.98 0 3.24.46 4.03 1.3A5.41 5.41 0 0 1 10.6 5.9v1.54H6.72V5.66a3.69 3.69 0 0 0-.24-1.53c-.1-.2-.26-.37-.46-.48-.2-.1-.42-.16-.65-.14-.55 0-.94.15-1.1.54a4.84 4.84 0 0 0-.24 1.69v8.22a3.1 3.1 0 0 0 .32 1.62c.15.38.55.54 1.1.54.56 0 .87-.16 1.03-.54.18-.52.26-1.07.24-1.62v-1.84h3.87v1.54A5.77 5.77 0 0 1 9.4 17.5c-.79.92-2.13 1.38-4.03 1.38-1.9-.07-3.32-.53-4.1-1.53ZM15.25 1.05h4.5l3.33 17.53h-3.64l-.63-3.7h-2.6l-.64 3.7h-3.72l3.4-17.53Zm3.24 11.53-.95-6.84-.94 6.84h1.9ZM25.84 3.97h-2.68V1.05h9.4V3.9h-2.69v14.68h-4.03V3.98ZM39.75 1.05h6.96V2.9h-4.5v5.76h3.63v1.77H42.2v6.46h4.5v1.76h-7.03V1.05h.08ZM48.76 1.05h1.74l5.14 11.6V1.06h2.05v17.53h-1.58l-5.21-12v12h-2.14V1.05ZM60.06 1.05h6.96V2.9h-4.5v5.76h3.63v1.77H62.5v6.46h4.5v1.76h-6.95V1.05ZM69.07 1.05h3.64c1.43-.1 2.85.29 4.03 1.08.87.7 1.26 1.92 1.26 3.53 0 2.23-.7 3.62-2.21 4.08l2.53 8.76h-2.45l-2.37-8.22h-1.98v8.22H69V1.05h.08Zm3.48 7.54c.81.06 1.63-.16 2.3-.62.47-.38.7-1.15.7-2.3a4.84 4.84 0 0 0-.23-1.7c-.18-.39-.49-.71-.87-.92a3.7 3.7 0 0 0-1.74-.3h-1.1V8.5h.94v.08ZM81.16 17.27a7.6 7.6 0 0 1-1.1-4.46V6.97c-.02-1.11.11-2.22.4-3.3.26-.81.78-1.51 1.5-2 .88-.51 1.9-.75 2.92-.7 1.66 0 2.84.39 3.55 1.24a5.76 5.76 0 0 1 1.11 3.84v.61h-2.37v-.53c0-.65-.05-1.3-.16-1.93-.06-.4-.3-.76-.63-1a2.5 2.5 0 0 0-1.5-.38 2.42 2.42 0 0 0-1.58.46 1.74 1.74 0 0 0-.63 1.23c-.1.69-.16 1.38-.16 2.08v6.53c-.06 1 .1 2 .47 2.92.32.62.95.85 1.9.85.37.04.75-.02 1.09-.19.34-.16.62-.42.8-.74.42-.97.61-2.02.56-3.07v-1.23h-2.3V9.89h4.59v8.69h-1.58l-.24-2c-.2.67-.64 1.25-1.22 1.66-.6.4-1.3.6-2.02.57a4.05 4.05 0 0 1-3.4-1.54ZM94.68 12.43 90.8 1.13h2.37l2.76 8.46 2.69-8.46H101l-3.87 11.3v6.15h-2.37v-6.15h-.08Z"/></g><defs><clipPath id="a"><path fill="#fff" d="M0 .82h101v18H0z"/></clipPath></defs></svg>